<svg xmlns="http://www.w3.org/2000/svg" xmlns:xlink="http://www.w3.org/1999/xlink" width="500" zoomAndPan="magnify" viewBox="0 0 375 374.999991" height="500" preserveAspectRatio="xMidYMid meet" version="1.0"><defs><g><g id="id1"/><g id="id2"/></g><clipPath id="id3"><path d="M 135.125 106.90625 L 234 106.90625 L 234 176 L 135.125 176 Z M 135.125 106.90625 " clip-rule="nonzero"/></clipPath><clipPath id="id4"><path d="M 144 136 L 240.125 136 L 240.125 211.90625 L 144 211.90625 Z M 144 136 " clip-rule="nonzero"/></clipPath></defs><g clip-path="url(#id3)"><path fill="rgb(30.589294%, 68.238831%, 90.19928%)" d="M 143.164062 169.949219 L 154.519531 159.085938 L 155.152344 158.484375 L 156.082031 157.582031 L 160.078125 153.695312 L 167.964844 146.023438 L 177.078125 155.390625 L 179.324219 157.703125 L 180.394531 158.804688 L 181.101562 159.546875 L 183.945312 162.519531 L 186.785156 165.488281 L 187.496094 166.230469 L 187.621094 166.367188 L 187.699219 166.453125 L 187.859375 166.628906 L 188.507812 167.339844 L 191.210938 170.300781 L 194.464844 167.335938 L 194.890625 166.945312 L 195.101562 166.753906 L 195.4375 166.433594 L 197.101562 164.84375 L 200.433594 161.65625 L 213.753906 148.917969 L 209.367188 144.535156 L 233.992188 134.789062 C 225.171875 118.195312 207.710938 106.894531 187.609375 106.894531 C 158.617188 106.894531 135.113281 130.398438 135.113281 159.390625 C 135.113281 164.9375 135.972656 170.28125 137.570312 175.300781 L 143.164062 169.949219 " fill-opacity="1" fill-rule="nonzero"/></g><g clip-path="url(#id4)"><path fill="rgb(1.959229%, 11.369324%, 25.099182%)" d="M 234.71875 136.207031 L 225.171875 160.335938 L 220.789062 155.953125 L 208.046875 169.273438 L 204.863281 172.601562 L 203.269531 174.265625 L 200.984375 176.625 L 191.210938 186.691406 L 182.289062 178.03125 L 180.03125 175.835938 L 178.945312 174.78125 L 178.203125 174.070312 L 175.230469 171.230469 L 172.261719 168.390625 L 171.519531 167.679688 L 171.429688 167.59375 L 171.386719 167.554688 L 171.304688 167.480469 L 171.136719 167.328125 L 170.480469 166.738281 L 167.964844 164.484375 L 165.980469 166.6875 L 165.039062 167.738281 L 164.925781 167.867188 L 164.867188 167.933594 L 164.738281 168.070312 L 164.132812 168.699219 L 162.925781 169.960938 L 153.273438 180.054688 L 144.449219 189.28125 C 153.929688 202.941406 169.722656 211.886719 187.609375 211.886719 C 216.601562 211.886719 240.105469 188.382812 240.105469 159.390625 C 240.105469 151.066406 238.164062 143.199219 234.71875 136.207031 " fill-opacity="1" fill-rule="nonzero"/></g><g fill="rgb(0%, 0%, 0%)" fill-opacity="1"><g transform="translate(124.210609, 246.228341)"><g><path d="M 10.5 -18.359375 C 11.78125 -18.359375 13.035156 -18.109375 14.265625 -17.609375 C 15.492188 -17.109375 16.550781 -16.414062 17.4375 -15.53125 L 15.640625 -13.296875 C 14.972656 -14.003906 14.1875 -14.566406 13.28125 -14.984375 C 12.382812 -15.398438 11.472656 -15.609375 10.546875 -15.609375 C 8.722656 -15.609375 7.175781 -14.984375 5.90625 -13.734375 C 4.644531 -12.492188 4.015625 -10.976562 4.015625 -9.1875 C 4.015625 -7.375 4.644531 -5.84375 5.90625 -4.59375 C 7.175781 -3.351562 8.722656 -2.734375 10.546875 -2.734375 C 12.441406 -2.734375 14.140625 -3.457031 15.640625 -4.90625 L 17.46875 -2.875 C 16.53125 -1.945312 15.429688 -1.210938 14.171875 -0.671875 C 12.921875 -0.140625 11.660156 0.125 10.390625 0.125 C 7.710938 0.125 5.457031 -0.765625 3.625 -2.546875 C 1.800781 -4.328125 0.890625 -6.535156 0.890625 -9.171875 C 0.890625 -11.765625 1.816406 -13.941406 3.671875 -15.703125 C 5.523438 -17.472656 7.800781 -18.359375 10.5 -18.359375 Z M 10.5 -18.359375 "/></g></g></g><g fill="rgb(0%, 0%, 0%)" fill-opacity="1"><g transform="translate(142.40742, 246.228341)"><g><path d="M 15.453125 -15.515625 L 5.484375 -15.515625 L 5.484375 -10.578125 L 14.40625 -10.578125 L 14.40625 -7.8125 L 5.484375 -7.8125 L 5.484375 -2.765625 L 15.765625 -2.765625 L 15.765625 0 L 2.40625 0 L 2.40625 -18.28125 L 15.453125 -18.28125 Z M 15.453125 -15.515625 "/></g></g></g><g fill="rgb(0%, 0%, 0%)" fill-opacity="1"><g transform="translate(159.533827, 246.228341)"><g><path d="M 18.25 0 L 15.21875 0 L 5.484375 -13.109375 L 5.484375 0 L 2.40625 0 L 2.40625 -18.28125 L 5.4375 -18.28125 L 15.21875 -5.140625 L 15.21875 -18.28125 L 18.25 -18.28125 Z M 18.25 0 "/></g></g></g><g fill="rgb(0%, 0%, 0%)" fill-opacity="1"><g transform="translate(180.210836, 246.228341)"><g><path d="M 14.875 -15.515625 L 9.09375 -15.515625 L 9.09375 0 L 6 0 L 6 -15.515625 L 0.234375 -15.515625 L 0.234375 -18.28125 L 14.875 -18.28125 Z M 14.875 -15.515625 "/></g></g></g><g fill="rgb(0%, 0%, 0%)" fill-opacity="1"><g transform="translate(195.326984, 246.228341)"><g><path d="M 17.9375 -18.28125 L 17.9375 -7.578125 C 17.9375 -5.191406 17.226562 -3.3125 15.8125 -1.9375 C 14.40625 -0.5625 12.46875 0.125 10 0.125 C 7.53125 0.125 5.582031 -0.5625 4.15625 -1.9375 C 2.738281 -3.3125 2.03125 -5.191406 2.03125 -7.578125 L 2.03125 -18.28125 L 5.125 -18.28125 L 5.125 -7.578125 C 5.125 -6.046875 5.5625 -4.835938 6.4375 -3.953125 C 7.3125 -3.078125 8.507812 -2.640625 10.03125 -2.640625 C 11.519531 -2.640625 12.695312 -3.070312 13.5625 -3.9375 C 14.425781 -4.8125 14.859375 -6.023438 14.859375 -7.578125 L 14.859375 -18.28125 Z M 17.9375 -18.28125 "/></g></g></g><g fill="rgb(0%, 0%, 0%)" fill-opacity="1"><g transform="translate(215.272979, 246.228341)"><g><path d="M 14 0 L 10.65625 -5.53125 C 10.476562 -5.519531 10.195312 -5.515625 9.8125 -5.515625 L 5.484375 -5.515625 L 5.484375 0 L 2.40625 0 L 2.40625 -18.28125 L 9.8125 -18.28125 C 12.144531 -18.28125 13.957031 -17.734375 15.25 -16.640625 C 16.539062 -15.554688 17.1875 -14.019531 17.1875 -12.03125 C 17.1875 -10.570312 16.859375 -9.335938 16.203125 -8.328125 C 15.546875 -7.316406 14.609375 -6.578125 13.390625 -6.109375 L 17.5 0 Z M 5.484375 -8.28125 L 9.8125 -8.28125 C 12.769531 -8.28125 14.25 -9.503906 14.25 -11.953125 C 14.25 -14.328125 12.769531 -15.515625 9.8125 -15.515625 L 5.484375 -15.515625 Z M 5.484375 -8.28125 "/></g></g></g><g fill="rgb(0%, 0%, 0%)" fill-opacity="1"><g transform="translate(234.148582, 246.228341)"><g><path d="M 9.890625 -6.078125 L 9.890625 0 L 6.84375 0 L 6.84375 -5.984375 L 0.03125 -18.28125 L 3.140625 -18.28125 L 8.359375 -9.375 L 13.46875 -18.28125 L 16.609375 -18.28125 Z M 9.890625 -6.078125 "/></g></g></g><g fill="rgb(0%, 0%, 0%)" fill-opacity="1"><g transform="translate(107.550059, 264.857202)"><g><path d="M 8 0 L 6.703125 -3.328125 L 2.515625 -3.328125 L 1.234375 0 L 0 0 L 4.125 -10.484375 L 5.15625 -10.484375 L 9.25 0 Z M 6.3125 -4.40625 L 5.109375 -7.640625 C 4.953125 -8.054688 4.789062 -8.5625 4.625 -9.15625 C 4.519531 -8.695312 4.367188 -8.191406 4.171875 -7.640625 L 2.9375 -4.40625 Z M 6.3125 -4.40625 "/></g></g></g><g fill="rgb(0%, 0%, 0%)" fill-opacity="1"><g transform="translate(117.850972, 264.857202)"><g/></g></g><g fill="rgb(0%, 0%, 0%)" fill-opacity="1"><g transform="translate(122.700082, 264.857202)"><g><path d="M -0.078125 2.75 C -0.523438 2.75 -0.878906 2.6875 -1.140625 2.5625 L -1.140625 1.515625 C -0.804688 1.609375 -0.453125 1.65625 -0.078125 1.65625 C 0.390625 1.65625 0.742188 1.515625 0.984375 1.234375 C 1.234375 0.953125 1.359375 0.539062 1.359375 0 L 1.359375 -10.4375 L 2.578125 -10.4375 L 2.578125 -0.09375 C 2.578125 0.800781 2.347656 1.5 1.890625 2 C 1.429688 2.5 0.773438 2.75 -0.078125 2.75 Z M -0.078125 2.75 "/></g></g></g><g fill="rgb(0%, 0%, 0%)" fill-opacity="1"><g transform="translate(127.656229, 264.857202)"><g><path d="M 6.0625 0 L 5.828125 -1.109375 L 5.78125 -1.109375 C 5.382812 -0.617188 4.992188 -0.285156 4.609375 -0.109375 C 4.222656 0.0546875 3.738281 0.140625 3.15625 0.140625 C 2.382812 0.140625 1.773438 -0.0546875 1.328125 -0.453125 C 0.890625 -0.859375 0.671875 -1.425781 0.671875 -2.15625 C 0.671875 -3.738281 1.9375 -4.570312 4.46875 -4.65625 L 5.796875 -4.6875 L 5.796875 -5.171875 C 5.796875 -5.785156 5.660156 -6.238281 5.390625 -6.53125 C 5.128906 -6.832031 4.707031 -6.984375 4.125 -6.984375 C 3.476562 -6.984375 2.738281 -6.78125 1.90625 -6.375 L 1.546875 -7.28125 C 1.929688 -7.488281 2.351562 -7.648438 2.8125 -7.765625 C 3.269531 -7.890625 3.734375 -7.953125 4.203125 -7.953125 C 5.128906 -7.953125 5.816406 -7.742188 6.265625 -7.328125 C 6.722656 -6.921875 6.953125 -6.257812 6.953125 -5.34375 L 6.953125 0 Z M 3.390625 -0.828125 C 4.128906 -0.828125 4.707031 -1.03125 5.125 -1.4375 C 5.550781 -1.84375 5.765625 -2.410156 5.765625 -3.140625 L 5.765625 -3.84375 L 4.578125 -3.796875 C 3.628906 -3.765625 2.945312 -3.617188 2.53125 -3.359375 C 2.113281 -3.097656 1.90625 -2.695312 1.90625 -2.15625 C 1.90625 -1.71875 2.035156 -1.382812 2.296875 -1.15625 C 2.554688 -0.9375 2.921875 -0.828125 3.390625 -0.828125 Z M 3.390625 -0.828125 "/></g></g></g><g fill="rgb(0%, 0%, 0%)" fill-opacity="1"><g transform="translate(136.836811, 264.857202)"><g><path d="M 2.96875 0 L 0 -7.828125 L 1.265625 -7.828125 L 2.953125 -3.1875 C 3.335938 -2.101562 3.5625 -1.398438 3.625 -1.078125 L 3.6875 -1.078125 C 3.738281 -1.328125 3.898438 -1.847656 4.171875 -2.640625 C 4.453125 -3.429688 5.082031 -5.160156 6.0625 -7.828125 L 7.328125 -7.828125 L 4.359375 0 Z M 2.96875 0 "/></g></g></g><g fill="rgb(0%, 0%, 0%)" fill-opacity="1"><g transform="translate(145.211039, 264.857202)"><g><path d="M 6.0625 0 L 5.828125 -1.109375 L 5.78125 -1.109375 C 5.382812 -0.617188 4.992188 -0.285156 4.609375 -0.109375 C 4.222656 0.0546875 3.738281 0.140625 3.15625 0.140625 C 2.382812 0.140625 1.773438 -0.0546875 1.328125 -0.453125 C 0.890625 -0.859375 0.671875 -1.425781 0.671875 -2.15625 C 0.671875 -3.738281 1.9375 -4.570312 4.46875 -4.65625 L 5.796875 -4.6875 L 5.796875 -5.171875 C 5.796875 -5.785156 5.660156 -6.238281 5.390625 -6.53125 C 5.128906 -6.832031 4.707031 -6.984375 4.125 -6.984375 C 3.476562 -6.984375 2.738281 -6.78125 1.90625 -6.375 L 1.546875 -7.28125 C 1.929688 -7.488281 2.351562 -7.648438 2.8125 -7.765625 C 3.269531 -7.890625 3.734375 -7.953125 4.203125 -7.953125 C 5.128906 -7.953125 5.816406 -7.742188 6.265625 -7.328125 C 6.722656 -6.921875 6.953125 -6.257812 6.953125 -5.34375 L 6.953125 0 Z M 3.390625 -0.828125 C 4.128906 -0.828125 4.707031 -1.03125 5.125 -1.4375 C 5.550781 -1.84375 5.765625 -2.410156 5.765625 -3.140625 L 5.765625 -3.84375 L 4.578125 -3.796875 C 3.628906 -3.765625 2.945312 -3.617188 2.53125 -3.359375 C 2.113281 -3.097656 1.90625 -2.695312 1.90625 -2.15625 C 1.90625 -1.71875 2.035156 -1.382812 2.296875 -1.15625 C 2.554688 -0.9375 2.921875 -0.828125 3.390625 -0.828125 Z M 3.390625 -0.828125 "/></g></g></g><g fill="rgb(0%, 0%, 0%)" fill-opacity="1"><g transform="translate(154.391621, 264.857202)"><g><path d="M 7.328125 -2.78125 C 7.328125 -1.863281 6.992188 -1.144531 6.328125 -0.625 C 5.660156 -0.113281 4.753906 0.140625 3.609375 0.140625 C 2.367188 0.140625 1.414062 -0.015625 0.75 -0.328125 L 0.75 -1.5 C 1.1875 -1.320312 1.65625 -1.179688 2.15625 -1.078125 C 2.65625 -0.972656 3.15625 -0.921875 3.65625 -0.921875 C 4.46875 -0.921875 5.078125 -1.070312 5.484375 -1.375 C 5.890625 -1.6875 6.09375 -2.113281 6.09375 -2.65625 C 6.09375 -3.019531 6.019531 -3.316406 5.875 -3.546875 C 5.726562 -3.785156 5.484375 -4 5.140625 -4.1875 C 4.804688 -4.382812 4.289062 -4.609375 3.59375 -4.859375 C 2.625 -5.203125 1.929688 -5.613281 1.515625 -6.09375 C 1.097656 -6.570312 0.890625 -7.191406 0.890625 -7.953125 C 0.890625 -8.753906 1.191406 -9.394531 1.796875 -9.875 C 2.398438 -10.351562 3.203125 -10.59375 4.203125 -10.59375 C 5.234375 -10.59375 6.1875 -10.398438 7.0625 -10.015625 L 6.6875 -8.96875 C 5.820312 -9.320312 4.984375 -9.5 4.171875 -9.5 C 3.523438 -9.5 3.019531 -9.359375 2.65625 -9.078125 C 2.300781 -8.804688 2.125 -8.425781 2.125 -7.9375 C 2.125 -7.570312 2.1875 -7.273438 2.3125 -7.046875 C 2.445312 -6.816406 2.671875 -6.601562 2.984375 -6.40625 C 3.304688 -6.21875 3.796875 -6.007812 4.453125 -5.78125 C 5.546875 -5.382812 6.296875 -4.960938 6.703125 -4.515625 C 7.117188 -4.066406 7.328125 -3.488281 7.328125 -2.78125 Z M 7.328125 -2.78125 "/></g></g></g><g fill="rgb(0%, 0%, 0%)" fill-opacity="1"><g transform="translate(163.465165, 264.857202)"><g><path d="M 4.390625 0.140625 C 3.253906 0.140625 2.375 -0.207031 1.75 -0.90625 C 1.132812 -1.601562 0.828125 -2.585938 0.828125 -3.859375 C 0.828125 -5.171875 1.140625 -6.179688 1.765625 -6.890625 C 2.398438 -7.609375 3.300781 -7.96875 4.46875 -7.96875 C 4.84375 -7.96875 5.21875 -7.925781 5.59375 -7.84375 C 5.96875 -7.769531 6.265625 -7.675781 6.484375 -7.5625 L 6.109375 -6.5625 C 5.847656 -6.664062 5.5625 -6.75 5.25 -6.8125 C 4.945312 -6.882812 4.675781 -6.921875 4.4375 -6.921875 C 2.84375 -6.921875 2.046875 -5.90625 2.046875 -3.875 C 2.046875 -2.914062 2.238281 -2.175781 2.625 -1.65625 C 3.019531 -1.144531 3.597656 -0.890625 4.359375 -0.890625 C 5.003906 -0.890625 5.671875 -1.03125 6.359375 -1.3125 L 6.359375 -0.265625 C 5.835938 0.00390625 5.179688 0.140625 4.390625 0.140625 Z M 4.390625 0.140625 "/></g></g></g><g fill="rgb(0%, 0%, 0%)" fill-opacity="1"><g transform="translate(171.475464, 264.857202)"><g><path d="M 4.828125 -7.96875 C 5.171875 -7.96875 5.484375 -7.941406 5.765625 -7.890625 L 5.59375 -6.78125 C 5.269531 -6.851562 4.984375 -6.890625 4.734375 -6.890625 C 4.109375 -6.890625 3.566406 -6.628906 3.109375 -6.109375 C 2.660156 -5.597656 2.4375 -4.960938 2.4375 -4.203125 L 2.4375 0 L 1.25 0 L 1.25 -7.828125 L 2.234375 -7.828125 L 2.375 -6.375 L 2.421875 -6.375 C 2.710938 -6.882812 3.0625 -7.273438 3.46875 -7.546875 C 3.882812 -7.828125 4.335938 -7.96875 4.828125 -7.96875 Z M 4.828125 -7.96875 "/></g></g></g><g fill="rgb(0%, 0%, 0%)" fill-opacity="1"><g transform="translate(178.493877, 264.857202)"><g><path d="M 2.4375 0 L 1.25 0 L 1.25 -7.828125 L 2.4375 -7.828125 Z M 1.15625 -9.953125 C 1.15625 -10.222656 1.222656 -10.421875 1.359375 -10.546875 C 1.492188 -10.671875 1.660156 -10.734375 1.859375 -10.734375 C 2.046875 -10.734375 2.207031 -10.664062 2.34375 -10.53125 C 2.488281 -10.40625 2.5625 -10.210938 2.5625 -9.953125 C 2.5625 -9.679688 2.488281 -9.476562 2.34375 -9.34375 C 2.207031 -9.21875 2.046875 -9.15625 1.859375 -9.15625 C 1.660156 -9.15625 1.492188 -9.21875 1.359375 -9.34375 C 1.222656 -9.476562 1.15625 -9.679688 1.15625 -9.953125 Z M 1.15625 -9.953125 "/></g></g></g><g fill="rgb(0%, 0%, 0%)" fill-opacity="1"><g transform="translate(183.243085, 264.857202)"><g><path d="M 4.90625 0.140625 C 4.394531 0.140625 3.925781 0.046875 3.5 -0.140625 C 3.082031 -0.328125 2.726562 -0.613281 2.4375 -1 L 2.359375 -1 C 2.410156 -0.550781 2.4375 -0.117188 2.4375 0.296875 L 2.4375 3.515625 L 1.25 3.515625 L 1.25 -7.828125 L 2.21875 -7.828125 L 2.390625 -6.75 L 2.4375 -6.75 C 2.75 -7.175781 3.101562 -7.484375 3.5 -7.671875 C 3.90625 -7.867188 4.375 -7.96875 4.90625 -7.96875 C 5.9375 -7.96875 6.734375 -7.613281 7.296875 -6.90625 C 7.859375 -6.195312 8.140625 -5.203125 8.140625 -3.921875 C 8.140625 -2.640625 7.851562 -1.640625 7.28125 -0.921875 C 6.707031 -0.210938 5.914062 0.140625 4.90625 0.140625 Z M 4.734375 -6.96875 C 3.929688 -6.96875 3.347656 -6.742188 2.984375 -6.296875 C 2.628906 -5.859375 2.445312 -5.15625 2.4375 -4.1875 L 2.4375 -3.921875 C 2.4375 -2.816406 2.617188 -2.023438 2.984375 -1.546875 C 3.359375 -1.078125 3.945312 -0.84375 4.75 -0.84375 C 5.425781 -0.84375 5.957031 -1.117188 6.34375 -1.671875 C 6.726562 -2.222656 6.921875 -2.976562 6.921875 -3.9375 C 6.921875 -4.914062 6.726562 -5.664062 6.34375 -6.1875 C 5.957031 -6.707031 5.421875 -6.96875 4.734375 -6.96875 Z M 4.734375 -6.96875 "/></g></g></g><g fill="rgb(0%, 0%, 0%)" fill-opacity="1"><g transform="translate(193.251427, 264.857202)"><g><path d="M 3.78125 -0.828125 C 3.988281 -0.828125 4.191406 -0.84375 4.390625 -0.875 C 4.585938 -0.90625 4.742188 -0.941406 4.859375 -0.984375 L 4.859375 -0.078125 C 4.722656 -0.015625 4.53125 0.0351562 4.28125 0.078125 C 4.03125 0.117188 3.804688 0.140625 3.609375 0.140625 C 2.097656 0.140625 1.34375 -0.65625 1.34375 -2.25 L 1.34375 -6.90625 L 0.21875 -6.90625 L 0.21875 -7.484375 L 1.34375 -7.96875 L 1.84375 -9.640625 L 2.53125 -9.640625 L 2.53125 -7.828125 L 4.796875 -7.828125 L 4.796875 -6.90625 L 2.53125 -6.90625 L 2.53125 -2.296875 C 2.53125 -1.828125 2.640625 -1.460938 2.859375 -1.203125 C 3.085938 -0.953125 3.394531 -0.828125 3.78125 -0.828125 Z M 3.78125 -0.828125 "/></g></g></g><g fill="rgb(0%, 0%, 0%)" fill-opacity="1"><g transform="translate(199.463487, 264.857202)"><g/></g></g><g fill="rgb(0%, 0%, 0%)" fill-opacity="1"><g transform="translate(204.312597, 264.857202)"><g><path d="M 7.25 0 L 1.4375 0 L 1.4375 -10.4375 L 7.25 -10.4375 L 7.25 -9.359375 L 2.65625 -9.359375 L 2.65625 -6 L 6.984375 -6 L 6.984375 -4.921875 L 2.65625 -4.921875 L 2.65625 -1.078125 L 7.25 -1.078125 Z M 7.25 0 "/></g></g></g><g fill="rgb(0%, 0%, 0%)" fill-opacity="1"><g transform="translate(213.493179, 264.857202)"><g><path d="M 3.140625 -4 L 0.421875 -7.828125 L 1.765625 -7.828125 L 3.828125 -4.828125 L 5.890625 -7.828125 L 7.234375 -7.828125 L 4.5 -4 L 7.375 0 L 6.03125 0 L 3.828125 -3.171875 L 1.625 0 L 0.28125 0 Z M 3.140625 -4 "/></g></g></g><g fill="rgb(0%, 0%, 0%)" fill-opacity="1"><g transform="translate(222.202787, 264.857202)"><g><path d="M 4.5625 0.140625 C 3.40625 0.140625 2.492188 -0.207031 1.828125 -0.90625 C 1.160156 -1.613281 0.828125 -2.59375 0.828125 -3.84375 C 0.828125 -5.101562 1.132812 -6.101562 1.75 -6.84375 C 2.375 -7.59375 3.207031 -7.96875 4.25 -7.96875 C 5.238281 -7.96875 6.015625 -7.644531 6.578125 -7 C 7.148438 -6.351562 7.4375 -5.503906 7.4375 -4.453125 L 7.4375 -3.703125 L 2.046875 -3.703125 C 2.066406 -2.785156 2.296875 -2.085938 2.734375 -1.609375 C 3.179688 -1.128906 3.804688 -0.890625 4.609375 -0.890625 C 5.453125 -0.890625 6.285156 -1.066406 7.109375 -1.421875 L 7.109375 -0.359375 C 6.691406 -0.179688 6.296875 -0.0546875 5.921875 0.015625 C 5.546875 0.0976562 5.09375 0.140625 4.5625 0.140625 Z M 4.234375 -6.984375 C 3.609375 -6.984375 3.109375 -6.773438 2.734375 -6.359375 C 2.359375 -5.953125 2.140625 -5.382812 2.078125 -4.65625 L 6.171875 -4.65625 C 6.171875 -5.40625 6.003906 -5.976562 5.671875 -6.375 C 5.335938 -6.78125 4.859375 -6.984375 4.234375 -6.984375 Z M 4.234375 -6.984375 "/></g></g></g><g fill="rgb(0%, 0%, 0%)" fill-opacity="1"><g transform="translate(231.454721, 264.857202)"><g><path d="M 4.828125 -7.96875 C 5.171875 -7.96875 5.484375 -7.941406 5.765625 -7.890625 L 5.59375 -6.78125 C 5.269531 -6.851562 4.984375 -6.890625 4.734375 -6.890625 C 4.109375 -6.890625 3.566406 -6.628906 3.109375 -6.109375 C 2.660156 -5.597656 2.4375 -4.960938 2.4375 -4.203125 L 2.4375 0 L 1.25 0 L 1.25 -7.828125 L 2.234375 -7.828125 L 2.375 -6.375 L 2.421875 -6.375 C 2.710938 -6.882812 3.0625 -7.273438 3.46875 -7.546875 C 3.882812 -7.828125 4.335938 -7.96875 4.828125 -7.96875 Z M 4.828125 -7.96875 "/></g></g></g><g fill="rgb(0%, 0%, 0%)" fill-opacity="1"><g transform="translate(238.473141, 264.857202)"><g><path d="M 4.390625 0.140625 C 3.253906 0.140625 2.375 -0.207031 1.75 -0.90625 C 1.132812 -1.601562 0.828125 -2.585938 0.828125 -3.859375 C 0.828125 -5.171875 1.140625 -6.179688 1.765625 -6.890625 C 2.398438 -7.609375 3.300781 -7.96875 4.46875 -7.96875 C 4.84375 -7.96875 5.21875 -7.925781 5.59375 -7.84375 C 5.96875 -7.769531 6.265625 -7.675781 6.484375 -7.5625 L 6.109375 -6.5625 C 5.847656 -6.664062 5.5625 -6.75 5.25 -6.8125 C 4.945312 -6.882812 4.675781 -6.921875 4.4375 -6.921875 C 2.84375 -6.921875 2.046875 -5.90625 2.046875 -3.875 C 2.046875 -2.914062 2.238281 -2.175781 2.625 -1.65625 C 3.019531 -1.144531 3.597656 -0.890625 4.359375 -0.890625 C 5.003906 -0.890625 5.671875 -1.03125 6.359375 -1.3125 L 6.359375 -0.265625 C 5.835938 0.00390625 5.179688 0.140625 4.390625 0.140625 Z M 4.390625 0.140625 "/></g></g></g><g fill="rgb(0%, 0%, 0%)" fill-opacity="1"><g transform="translate(246.483434, 264.857202)"><g><path d="M 2.4375 0 L 1.25 0 L 1.25 -7.828125 L 2.4375 -7.828125 Z M 1.15625 -9.953125 C 1.15625 -10.222656 1.222656 -10.421875 1.359375 -10.546875 C 1.492188 -10.671875 1.660156 -10.734375 1.859375 -10.734375 C 2.046875 -10.734375 2.207031 -10.664062 2.34375 -10.53125 C 2.488281 -10.40625 2.5625 -10.210938 2.5625 -9.953125 C 2.5625 -9.679688 2.488281 -9.476562 2.34375 -9.34375 C 2.207031 -9.21875 2.046875 -9.15625 1.859375 -9.15625 C 1.660156 -9.15625 1.492188 -9.21875 1.359375 -9.34375 C 1.222656 -9.476562 1.15625 -9.679688 1.15625 -9.953125 Z M 1.15625 -9.953125 "/></g></g></g><g fill="rgb(0%, 0%, 0%)" fill-opacity="1"><g transform="translate(251.232647, 264.857202)"><g><path d="M 6.3125 -2.140625 C 6.3125 -1.410156 6.035156 -0.847656 5.484375 -0.453125 C 4.941406 -0.0546875 4.179688 0.140625 3.203125 0.140625 C 2.171875 0.140625 1.363281 -0.0195312 0.78125 -0.34375 L 0.78125 -1.453125 C 1.15625 -1.253906 1.554688 -1.097656 1.984375 -0.984375 C 2.421875 -0.878906 2.835938 -0.828125 3.234375 -0.828125 C 3.847656 -0.828125 4.320312 -0.925781 4.65625 -1.125 C 4.988281 -1.320312 5.15625 -1.625 5.15625 -2.03125 C 5.15625 -2.34375 5.023438 -2.601562 4.765625 -2.8125 C 4.503906 -3.03125 3.988281 -3.285156 3.21875 -3.578125 C 2.488281 -3.847656 1.96875 -4.082031 1.65625 -4.28125 C 1.351562 -4.488281 1.125 -4.722656 0.96875 -4.984375 C 0.820312 -5.242188 0.75 -5.550781 0.75 -5.90625 C 0.75 -6.539062 1.007812 -7.039062 1.53125 -7.40625 C 2.050781 -7.78125 2.765625 -7.96875 3.671875 -7.96875 C 4.515625 -7.96875 5.335938 -7.796875 6.140625 -7.453125 L 5.71875 -6.484375 C 4.9375 -6.816406 4.222656 -6.984375 3.578125 -6.984375 C 3.023438 -6.984375 2.601562 -6.894531 2.3125 -6.71875 C 2.03125 -6.539062 1.890625 -6.296875 1.890625 -5.984375 C 1.890625 -5.773438 1.941406 -5.597656 2.046875 -5.453125 C 2.148438 -5.304688 2.320312 -5.164062 2.5625 -5.03125 C 2.800781 -4.894531 3.257812 -4.703125 3.9375 -4.453125 C 4.863281 -4.109375 5.488281 -3.765625 5.8125 -3.421875 C 6.144531 -3.078125 6.3125 -2.648438 6.3125 -2.140625 Z M 6.3125 -2.140625 "/></g></g></g><g fill="rgb(0%, 0%, 0%)" fill-opacity="1"><g transform="translate(259.257212, 264.857202)"><g><path d="M 4.5625 0.140625 C 3.40625 0.140625 2.492188 -0.207031 1.828125 -0.90625 C 1.160156 -1.613281 0.828125 -2.59375 0.828125 -3.84375 C 0.828125 -5.101562 1.132812 -6.101562 1.75 -6.84375 C 2.375 -7.59375 3.207031 -7.96875 4.25 -7.96875 C 5.238281 -7.96875 6.015625 -7.644531 6.578125 -7 C 7.148438 -6.351562 7.4375 -5.503906 7.4375 -4.453125 L 7.4375 -3.703125 L 2.046875 -3.703125 C 2.066406 -2.785156 2.296875 -2.085938 2.734375 -1.609375 C 3.179688 -1.128906 3.804688 -0.890625 4.609375 -0.890625 C 5.453125 -0.890625 6.285156 -1.066406 7.109375 -1.421875 L 7.109375 -0.359375 C 6.691406 -0.179688 6.296875 -0.0546875 5.921875 0.015625 C 5.546875 0.0976562 5.09375 0.140625 4.5625 0.140625 Z M 4.234375 -6.984375 C 3.609375 -6.984375 3.109375 -6.773438 2.734375 -6.359375 C 2.359375 -5.953125 2.140625 -5.382812 2.078125 -4.65625 L 6.171875 -4.65625 C 6.171875 -5.40625 6.003906 -5.976562 5.671875 -6.375 C 5.335938 -6.78125 4.859375 -6.984375 4.234375 -6.984375 Z M 4.234375 -6.984375 "/></g></g></g></svg>